<svg width="85" height="46" viewBox="0 0 85 46" fill="none" xmlns="http://www.w3.org/2000/svg">
<path fill-rule="evenodd" clip-rule="evenodd" d="M80.6918 40.2048C80.6918 40.2048 80.7367 40.1357 80.806 40.0205C80.5342 39.4782 80.2339 38.5303 80.4696 37.2092C80.9345 35.8703 81.1803 36.3466 81.2875 35.9164C81.3939 35.4986 80.988 37.0302 81.5507 38.3636C81.7043 37.9719 81.8659 37.5279 82.025 37.0348C81.702 36.5432 81.345 35.7075 81.3868 34.4509C81.65 33.0107 81.9565 33.4231 81.9998 32.9715C82.0408 32.5452 81.8722 34.0545 82.5357 35.2313C82.6334 34.8357 82.7248 34.4201 82.8099 33.9846C82.4395 33.5576 82.0061 32.8156 81.8879 31.5973C81.9573 30.1072 82.3119 30.4498 82.2953 29.9904C82.2796 29.5588 82.3126 31.0942 83.1085 32.115C83.1755 31.5912 83.2299 31.0443 83.2677 30.4759C82.8438 30.1418 82.2906 29.485 82.0148 28.2345C81.9045 26.7367 82.2922 27.0056 82.2228 26.5524C82.1551 26.1161 82.3828 27.7138 83.3362 28.5548C83.3402 28.0556 83.3284 27.5448 83.3047 27.0202C82.8398 26.7936 82.1779 26.262 81.7319 25.0077C81.4435 23.5375 81.8548 23.7265 81.7319 23.2887C81.6082 22.8547 82.0518 24.5023 83.1542 25.106C83.0912 24.5415 83.0124 23.9638 82.9155 23.3755C82.4316 23.2772 81.7414 22.9407 81.1189 21.9084C80.5688 20.5565 81.0006 20.6118 80.7997 20.2208C80.6011 19.8291 81.3489 21.3523 82.5427 21.5696L82.5798 21.6357C82.4324 20.9659 82.2606 20.2807 82.0597 19.5833C81.5751 19.528 80.8446 19.2492 80.163 18.2161C79.5689 16.8949 79.9991 16.9241 79.7848 16.5447C79.5783 16.1737 80.338 17.5755 81.4908 17.7736C81.3316 17.3112 81.1598 16.8411 80.9762 16.368C80.4908 16.3734 79.7738 16.1875 79.0346 15.2972C78.327 14.0683 78.7557 14.0314 78.509 13.6857C78.2648 13.3401 79.1899 14.692 80.3844 14.652L80.6051 14.9416L80.479 14.5529C80.9778 13.1657 80.3687 11.5496 80.5208 11.9721C80.6736 12.3945 80.8675 11.9083 81.4742 13.2218C81.9651 14.9224 81.4805 16.0385 81.2568 16.4325C81.412 16.8411 81.5617 17.2467 81.698 17.65C82.2859 16.3672 81.8399 14.7311 81.9533 15.1667C82.0668 15.6091 82.3079 15.1574 82.7902 16.5493C83.1101 18.2191 82.5932 19.23 82.319 19.6278C82.4781 20.1932 82.6208 20.7493 82.746 21.297C83.2819 20.0734 82.9249 18.5548 83.0195 18.9773C83.118 19.4251 83.3741 18.9926 83.8098 20.4059C84.0856 22.201 83.4411 23.1919 83.1747 23.5137C83.2559 24.0207 83.3244 24.5215 83.3772 25.0131C84.2015 24.0161 84.1298 22.35 84.1416 22.7971C84.1573 23.2579 84.4883 22.923 84.6538 24.4163C84.5986 26.0754 83.9052 26.8389 83.5427 27.1254C83.5663 27.6769 83.5742 28.2161 83.5703 28.7384C83.575 28.7062 83.5797 28.6731 83.5829 28.6424C84.5899 27.8612 84.7255 26.113 84.6845 26.5654C84.6419 27.0186 85.0123 26.759 84.9997 28.2553C84.7255 29.9866 83.8461 30.5558 83.4883 30.7209C83.4387 31.3569 83.3733 31.9676 83.2913 32.5506C83.2937 32.599 83.2976 32.652 83.3016 32.7057C83.3386 32.5559 83.3725 32.4215 83.4001 32.3171C84.4938 31.7563 84.8389 30.0719 84.7444 30.5082C84.6482 30.9429 85.0485 30.7632 84.8547 32.2257C84.3401 33.9869 83.289 34.2949 82.9809 34.3479C82.8784 34.8395 82.7697 35.3081 82.6538 35.7474C82.6523 35.7782 82.6515 35.8104 82.6483 35.8419C82.7035 35.7052 82.7571 35.5808 82.7965 35.4855C83.9587 35.1813 84.5206 33.6113 84.3685 34.0146C84.2188 34.4186 84.638 34.3326 84.255 35.7198C83.5553 37.2407 82.5412 37.3835 82.1716 37.3789C82.0274 37.8121 81.8848 38.2046 81.7445 38.5541C82.9304 38.5203 83.6971 37.1462 83.4915 37.5018C83.285 37.8582 83.7153 37.8751 83.14 39.1341C82.3229 40.3123 81.4143 40.3477 80.9731 40.2762C80.8612 40.4836 80.7942 40.5988 80.7887 40.6088L80.6035 40.4122C80.6082 40.4045 80.6484 40.3377 80.7154 40.2125L80.6981 40.2048H80.6918ZM4.3067 40.2048C4.3067 40.2048 4.26257 40.1357 4.19166 40.0205C4.46351 39.4782 4.76452 38.5303 4.52813 37.2092C4.06321 35.8703 3.81657 36.3466 3.70862 35.9164C3.60461 35.4986 4.00805 37.0302 3.44701 38.3636C3.29335 37.9719 3.13181 37.5279 2.97185 37.0348C3.29493 36.5432 3.65267 35.7075 3.61012 34.4509C3.34851 33.0107 3.04277 33.4231 2.99864 32.9715C2.95609 32.5452 3.12472 34.0545 2.46124 35.2313C2.36353 34.8357 2.27212 34.4201 2.18544 33.9846C2.55816 33.5576 2.98919 32.8156 3.10896 31.5973C3.03804 30.1072 2.68581 30.4498 2.70079 29.9904C2.71654 29.5588 2.68503 31.0942 1.88758 32.115C1.82139 31.5912 1.76702 31.0443 1.72841 30.4759C2.15235 30.1418 2.70551 29.485 2.98131 28.2345C3.09163 26.7367 2.70394 27.0056 2.77328 26.5524C2.84183 26.1161 2.61411 27.7138 1.65907 28.5548C1.65749 28.0556 1.66695 27.5448 1.69295 27.0202C2.1555 26.7936 2.81977 26.262 3.26498 25.0077C3.55339 23.5375 3.14127 23.7265 3.26498 23.2887C3.38712 22.8547 2.94506 24.5023 1.84267 25.106C1.90571 24.5415 1.98451 23.9638 2.08064 23.3755C2.56446 23.2772 3.25474 22.9407 3.87725 21.9084C4.42648 20.5565 3.99545 20.6118 4.1956 20.2208C4.39417 19.8291 3.64637 21.3523 2.45257 21.5696L2.41553 21.6357C2.56525 20.9659 2.73703 20.2807 2.93561 19.5833C3.42258 19.528 4.15147 19.2492 4.83465 18.2161C5.42879 16.8949 4.99855 16.9241 5.21131 16.5447C5.41934 16.1737 4.65972 17.5755 3.50532 17.7736C3.66449 17.3112 3.83627 16.8411 4.01988 16.368C4.50685 16.3734 5.22392 16.1875 5.96226 15.2972C6.67145 14.0683 6.24357 14.0314 6.49021 13.6857C6.73449 13.3401 5.80939 14.692 4.6148 14.652C4.55413 14.7288 4.47691 14.8318 4.39259 14.9416C4.44145 14.7918 4.48715 14.6574 4.51867 14.5529C4.01987 13.1657 4.63056 11.5496 4.47927 11.9721C4.32404 12.3945 4.12941 11.9083 3.52581 13.2218C3.03332 14.9224 3.51793 16.0385 3.74172 16.4325C3.58569 16.8411 3.43676 17.2467 3.29887 17.65C2.7126 16.3672 3.15861 14.7311 3.04671 15.1667C2.93167 15.6091 2.69212 15.1574 2.20751 16.5493C1.88837 18.2191 2.4045 19.23 2.6803 19.6278C2.51955 20.1932 2.37771 20.7493 2.25242 21.297C1.71501 20.0734 2.07118 18.5548 1.97663 18.9773C1.8797 19.4251 1.62361 18.9926 1.18864 20.4059C0.91048 22.201 1.55663 23.1919 1.82297 23.5137C1.74181 24.0207 1.67325 24.5215 1.62046 25.0131C0.797797 24.0161 0.868716 22.35 0.856109 22.7971C0.841925 23.2579 0.509394 22.923 0.343917 24.4163C0.399076 26.0754 1.09408 26.8389 1.45498 27.1254C1.43134 27.6769 1.42346 28.2161 1.42819 28.7384L1.41558 28.6424C0.40932 27.8612 0.275362 26.113 0.31555 26.5654C0.357313 27.0186 -0.0130407 26.759 0.000355062 28.2553C0.274574 29.9866 1.15397 30.5558 1.51171 30.7209C1.56057 31.3569 1.62597 31.9676 1.70871 32.5506C1.70556 32.599 1.70083 32.652 1.69847 32.7057C1.66064 32.5559 1.62755 32.4215 1.59918 32.3171C0.503879 31.7563 0.159528 30.0719 0.254875 30.5082C0.351009 30.9429 -0.0500761 30.7632 0.144557 32.2257C0.6599 33.9869 1.71265 34.2949 2.0176 34.3479C2.12004 34.8395 2.23036 35.3081 2.34461 35.7474L2.35249 35.8419L2.20278 35.4855C1.04207 35.1813 0.481027 33.6113 0.63232 34.0146C0.783614 34.4186 0.362829 34.3326 0.745002 35.7198C1.44631 37.2407 2.45966 37.3835 2.82923 37.3789C2.97343 37.8121 3.11684 38.2046 3.25474 38.5541C2.0704 38.5203 1.30368 37.1462 1.51014 37.5018C1.71738 37.8582 1.28635 37.8751 1.86158 39.1341C2.67951 40.3123 3.58727 40.3477 4.03012 40.2762C4.14044 40.4836 4.20742 40.5988 4.21293 40.6088L4.39811 40.4122C4.39259 40.4045 4.3524 40.3377 4.28779 40.2125L4.3067 40.2048ZM7.28214 35.5078C6.57453 34.179 5.98511 31.6188 8.28682 28.2683C9.16306 26.991 11.1078 25.136 13.5135 24.8518C18.8277 24.2219 19.5298 28.0648 19.5298 28.0648C19.5298 28.0648 16.63 25.8419 14.5103 25.868C13.5789 25.8795 10.728 25.7697 8.62172 28.508C7.1206 30.459 7.63043 32.9108 7.91253 33.9616C8.33174 35.5209 9.94553 36.6469 12.0613 36.6469C13.8603 36.6469 17.708 36.7237 26.1781 29.081C34.8585 21.2493 42.368 11.2831 45.7288 5.61058C46.6492 4.05515 46.9541 2.81081 46.5838 2.10415C46.2355 1.43589 45.4664 0.982706 45.4569 0.98117C45.0488 0.941228 45.3624 -0.0365784 45.7753 0.00105905C45.8462 0.00643584 47.958 0.748432 48.4284 2.23934C48.865 3.61887 48.2945 4.94309 47.0597 7.11685C45.5357 9.8014 44.2387 11.6103 42.6415 13.4614C37.094 19.8905 33.9973 23.0352 26.9582 29.5995C18.2005 37.7676 14.5679 38.0364 12.0621 37.869C10.2576 37.7476 8.28761 37.4004 7.28214 35.5093V35.5078Z" fill="#C49236"/>
<path fill-rule="evenodd" clip-rule="evenodd" d="M19.4423 33.5138C18.7631 33.5138 18.0909 33.2956 17.3416 32.9869C14.2897 31.7302 15.017 29.2001 15.0233 29.1739C15.0336 29.1294 15.2873 28.054 16.2526 27.6485C16.7994 27.418 17.2376 27.3919 17.9176 27.7852C19.741 28.8452 19.6606 30.5158 19.5519 30.8131C19.4416 31.1142 19.3911 31.0689 19.3651 30.9744C19.347 30.9076 19.8931 29.2001 17.7624 28.0594C17.2911 27.809 16.7561 27.9135 16.4401 28.0456C15.8294 28.3021 15.5182 29.0633 15.5182 29.0726C15.4945 29.1624 14.6766 31.1357 17.5299 32.483C20.8599 34.0576 24.0111 31.158 24.1253 31.0343C24.2656 30.8853 24.8267 31.2816 24.6864 31.4307C24.6604 31.4583 22.2996 33.5138 19.4423 33.5138Z" fill="#C49236"/>
<path fill-rule="evenodd" clip-rule="evenodd" d="M25.2561 35.5493C25.2356 35.5493 17.7466 34.8987 17.4141 30.0573C17.1343 25.9747 21.5841 23.6389 25.9196 22.5735C29.5617 21.6787 34.9499 21.1495 42.3082 20.8645C48.6152 20.621 48.4545 17.4495 48.6562 16.4456C48.8429 15.5161 50.2125 21.088 42.5989 21.7186C35.3825 22.3162 32.0809 22.4714 26.7076 24.0583C23.3098 25.0607 19.0799 27.0493 19.2398 30.0166C19.4463 33.8802 25.7778 35.5485 25.2553 35.5485L25.2561 35.5493Z" fill="#C49236"/>
<path fill-rule="evenodd" clip-rule="evenodd" d="M22.9324 28.7768C22.9899 28.7346 25.2522 27.0793 28.0149 24.6482C26.6753 22.1173 25.5225 17.8689 26.6454 12.3638C27.7564 6.91484 30.5246 4.23721 32.6498 2.75475C34.8404 1.22621 37.5984 0.710037 38.7488 1.44128C40.2988 2.42677 41.0001 4.97459 39.8701 8.80978C38.2524 14.3018 33.4977 20.5342 28.9014 24.6736C29.8548 26.1983 31.0841 27.2114 31.0951 27.2206C31.2448 27.3528 34.6111 29.7677 38.0806 27.2053C38.354 27.0025 38.2067 27.2637 37.9285 27.4618C33.9019 30.3315 30.4947 27.5287 30.4568 27.4941C30.3702 27.425 29.3671 26.6569 28.371 25.1298C25.7549 27.4111 23.5533 29.1179 23.3256 29.2838C23.2152 29.366 22.6566 28.9766 22.9324 28.7768ZM37.0082 1.64099C36.9372 1.64867 29.3844 2.1441 27.4846 12.6058C26.5626 17.6784 27.4649 22.0167 28.5129 24.1605C28.5255 24.1851 36.9759 16.4517 39.1208 8.7368C40.3658 4.24796 39.2673 2.55735 38.6259 2.11415C37.8852 1.60258 37.0113 1.64099 37.0082 1.64099ZM45.8982 32.8647C45.5436 32.9001 45.1362 32.9646 44.2592 32.6612C42.959 32.2134 42.1868 30.5366 41.9725 28.2415C41.4887 23.0721 43.4405 17.0409 43.5114 16.7736L47.6208 3.24327C48.1527 3.37846 44.9322 17.2874 44.9322 17.2874C44.9164 17.3489 43.0441 24.2573 43.6572 28.7261C44.1142 32.0505 45.821 31.7156 45.8242 31.7141C48.5222 31.4407 50.1092 29.4981 50.1092 29.4981C50.4008 29.813 48.237 32.6097 45.8982 32.8647Z" fill="#C49236"/>
<path fill-rule="evenodd" clip-rule="evenodd" d="M34.0091 39.7432C32.1707 39.7432 30.7389 39.3107 29.7351 38.4504C28.6279 37.498 28.0842 36.067 28.1197 34.1928C28.2064 29.442 33.0974 26.206 33.2841 26.0508C33.5993 25.7896 33.4496 26.2981 33.1344 26.5593C33.095 26.5923 29.3663 29.9106 29.2906 33.9923C29.2638 35.4148 29.8367 36.9088 30.5987 37.5609C31.6073 38.4289 33.6167 38.8076 36.0437 38.4466C38.7134 38.0487 41.9197 35.6722 45.3474 31.277C47.4852 28.5379 50.8586 21.6733 52.474 17.7928C54.1524 13.7648 57.131 9.05479 57.298 8.85431C57.837 8.20372 58.5273 8.19834 58.8535 8.4426C59.3736 8.8305 59.1608 9.57172 58.8693 9.99879C58.6959 10.2546 55.213 14.102 53.3455 17.9457C51.4677 21.8116 48.2212 28.8644 46.0172 31.691C42.3421 36.4026 39.2689 39.1095 36.1989 39.568C35.4141 39.6832 34.686 39.7424 34.0099 39.7424L34.0091 39.7432ZM50.114 38.7185C50.3133 36.8366 51.552 29.4528 52.9641 26.6223C56.7228 19.0871 59.6352 19.5372 61.0623 20.1125C62.0457 20.5089 62.6028 21.6088 61.8707 21.9737C60.1592 22.8278 59.4437 20.8138 58.075 21.1495C56.7606 21.4721 54.7292 25.3457 54.6205 25.6352C52.0359 32.529 52.7332 35.5485 52.5898 38.9697C52.5638 39.6011 50.0446 39.3883 50.114 38.7185Z" fill="#C49236"/>
<path fill-rule="evenodd" clip-rule="evenodd" d="M50.114 38.7185C50.2511 37.8582 54.072 17.4779 57.6353 9.19226C57.7945 8.81896 58.2326 8.64537 58.6124 8.80053C58.993 8.95876 58.0277 10.5272 57.8662 10.8998C54.3754 19.021 51.6387 38.8606 51.6056 39.0695C51.5481 39.4305 50.0517 39.1179 50.1148 38.7192L50.114 38.7185ZM54.154 39.6571C52.972 39.7032 49.2369 39.6994 47.9919 39.6571C47.9919 38.7431 49.9264 38.972 50.1746 38.3767C50.5292 37.5317 52.4109 37.5778 52.578 38.3767C52.6923 38.9312 54.1327 38.9443 54.154 39.6571Z" fill="#C49236"/>
<path fill-rule="evenodd" clip-rule="evenodd" d="M52.3487 32.4584C52.3487 32.4584 55.3824 31.3292 59.1679 27.7667C60.6099 26.4103 62.2939 24.0184 63.1788 23.0621C64.542 21.5873 65.1117 20.9467 66.6633 20.0511C67.6522 19.4827 71.0665 18.2614 73.6748 19.2791C74.7125 19.6847 74.9986 19.9105 75.6715 21.4099C76.0222 22.1933 75.9355 23.0421 75.0017 23.2518C73.9001 23.4991 73.4273 22.4023 73.384 21.7309C73.2296 19.319 71.1721 19.6056 70.7403 19.5956C69.3771 19.5595 65.865 22.8309 64.7138 23.9869C63.8029 24.8994 61.327 26.9948 59.7282 28.3897C55.254 32.294 52.3495 32.4576 52.3495 32.4576L52.3487 32.4584Z" fill="#C49236"/>
<path fill-rule="evenodd" clip-rule="evenodd" d="M72.28 34.268C71.7095 34.268 70.92 34.2427 70.4259 33.9969C69.6616 33.6167 68.8105 32.7602 68.6387 31.1572C68.2054 27.1069 70.9728 25.4655 71.4069 25.285C72.6378 24.6244 75.4288 24.2941 76.231 25.6045C77.3854 27.4964 76.4721 28.9266 76.417 29.0149C76.2381 29.3022 76.0206 29.293 76.2003 29.0057C76.2082 28.9927 76.7006 27.2598 75.8985 26.09C74.6755 24.3079 72.0578 25.5262 72.0295 25.5354C71.9231 25.5784 69.0225 27.0639 69.2613 31.0965C69.3306 32.2809 70.1265 33.1627 70.816 33.5061C71.8112 34.0015 73.6543 33.6559 75.3122 32.6074C77.6486 31.1288 78.803 28.4319 77.6604 24.4155C76.3681 19.8652 72.165 19.4535 71.9514 19.4427C71.6087 19.4274 71.351 18.8789 71.6867 18.8897C71.7481 18.8912 76.7739 18.8897 78.3609 24.2488C79.6611 28.6409 77.8936 31.5843 75.6376 33.0805C74.5171 33.8233 73.7228 34.0668 72.2777 34.2711L72.28 34.268ZM67.6167 45.9633C63.2607 45.8197 58.1893 40.4636 56.7977 36.7997C55.2115 32.6212 51.7884 32.4576 51.7884 32.4576C51.8089 32.3562 55.1508 31.3846 57.7433 35.0861C59.9693 38.2622 62.8762 42.0429 63.2702 42.6259C63.4932 42.8909 66.1857 46.2552 70.1273 45.4325C72.9199 44.8488 72.9246 42.9055 72.9246 42.2702C72.9246 42.2702 72.923 41.0167 73.9545 41.0605C74.6795 41.0912 74.737 41.592 74.7842 41.9745C74.8946 42.8701 73.6125 46.4088 67.6167 45.961V45.9633Z" fill="#C49236"/>
<path fill-rule="evenodd" clip-rule="evenodd" d="M62.3845 39.8814C61.4468 39.8814 60.8928 39.8476 60.2995 39.6072C60.045 39.5043 60.0607 39.1263 60.3152 39.2285C60.4492 39.2823 64.003 40.3845 65.4182 38.1117C66.092 37.0302 65.8091 34.3157 65.2055 33.5161C64.7563 32.9169 64.0471 32.3355 63.2907 32.2687C61.6422 32.1227 60.5406 32.7856 60.5327 34.066C60.5193 35.8957 63.2142 37.2921 63.2142 37.2921C63.2142 37.2921 60.7967 36.6776 60.3775 34.4516C60.1198 33.0921 61.0221 31.8784 63.2907 32.0628C64.2347 32.1381 65.2512 32.7741 65.791 34.1874C66.3536 35.6637 66.0841 37.8689 65.4127 38.5349C64.4072 39.5335 63.5082 39.7516 62.3845 39.8814Z" fill="#C49236"/>
<path fill-rule="evenodd" clip-rule="evenodd" d="M73.804 44.0453C73.9774 43.9762 79.1095 40.8577 76.5895 34.8933C75.6952 32.781 74.6645 31.214 73.1035 30.4536C70.552 29.2139 68.2889 29.7454 67.72 29.9513C66.2307 30.4912 61.4192 33.1389 62.7107 38.9051C63.0141 40.2601 63.3427 41.3093 65.2717 42.3939C67.7144 43.7673 71.8277 43.0698 71.5622 43.139C71.3983 43.1828 67.3685 44.3887 64.765 42.4984C63.4727 41.5613 62.877 40.552 62.5145 38.9236C61.0363 32.2871 67.6585 29.7308 67.6585 29.7308C67.6585 29.7308 70.3755 28.783 73.1665 30.1502C74.9868 31.0427 75.8709 32.4499 76.9 34.8172C78.3318 38.1124 77.3444 40.6196 76.465 41.8954C74.971 44.0615 72.5015 45.1676 72.4479 45.1875C72.388 45.2106 73.5495 44.1429 73.804 44.0453Z" fill="#C49236"/>
</svg>
