<svg width="165" height="90" viewBox="0 0 165 90" fill="none" xmlns="http://www.w3.org/2000/svg">
<path fill-rule="evenodd" clip-rule="evenodd" d="M156.637 78.6616C156.637 78.6616 156.724 78.5263 156.859 78.3009C156.331 77.2399 155.748 75.3854 156.206 72.8005C157.108 70.1811 157.585 71.1129 157.793 70.2713C158 69.4537 157.212 72.4504 158.304 75.0593C158.603 74.2928 158.916 73.4242 159.225 72.4594C158.598 71.4976 157.905 69.8625 157.986 67.4039C158.497 64.5861 159.092 65.3931 159.176 64.5094C159.256 63.6754 158.928 66.6284 160.216 68.9307C160.406 68.1568 160.583 67.3438 160.749 66.4917C160.03 65.6561 159.188 64.2044 158.959 61.8209C159.094 58.9054 159.782 59.5756 159.75 58.677C159.719 57.8324 159.783 60.8365 161.328 62.8338C161.458 61.8089 161.564 60.7388 161.637 59.6267C160.814 58.973 159.741 57.6881 159.205 55.2415C158.991 52.311 159.744 52.837 159.609 51.9503C159.477 51.0967 159.92 54.2226 161.77 55.8682C161.778 54.8913 161.755 53.892 161.709 52.8655C160.807 52.4222 159.522 51.3822 158.656 48.9281C158.096 46.0517 158.895 46.4214 158.656 45.5648C158.416 44.7157 159.277 47.9393 161.417 49.1205C161.295 48.0159 161.142 46.8858 160.954 45.7346C160.014 45.5423 158.674 44.884 157.466 42.8642C156.398 40.2192 157.237 40.3274 156.847 39.5625C156.461 38.7961 157.913 41.7762 160.23 42.2015L160.302 42.3307C160.016 41.0202 159.682 39.6797 159.292 38.3152C158.352 38.2069 156.934 37.6614 155.611 35.6401C154.457 33.0553 155.292 33.1124 154.876 32.37C154.476 31.6441 155.95 34.3868 158.188 34.7745C157.879 33.8698 157.546 32.9501 157.189 32.0243C156.247 32.0348 154.855 31.6712 153.42 29.9294C152.047 27.5249 152.879 27.4527 152.4 26.7764C151.926 26.1002 153.721 28.7451 156.04 28.667L156.469 29.2336L156.224 28.4731C157.192 25.759 156.01 22.5971 156.305 23.4236C156.602 24.2502 156.978 23.2989 158.156 25.8687C159.109 29.196 158.168 31.3796 157.734 32.1506C158.035 32.9501 158.326 33.7436 158.59 34.5325C159.731 32.0228 158.866 28.8218 159.086 29.6739C159.306 30.5395 159.774 29.6559 160.71 32.379C161.331 35.6461 160.328 37.6239 159.796 38.4023C160.105 39.5084 160.381 40.5964 160.625 41.668C161.665 39.274 160.972 36.3029 161.155 37.1294C161.347 38.0056 161.844 37.1595 162.69 39.9247C163.225 43.4368 161.974 45.3754 161.457 46.0051C161.614 46.997 161.747 47.9768 161.85 48.9386C163.45 46.988 163.311 43.7283 163.334 44.603C163.364 45.5047 164.007 44.8494 164.328 47.7709C164.221 51.017 162.875 52.5109 162.171 53.0714C162.217 54.1504 162.232 55.2054 162.225 56.2274C162.234 56.1642 162.243 56.0996 162.249 56.0395C164.204 54.5111 164.467 51.0907 164.388 51.9759C164.305 52.8625 165.024 52.3546 164.999 55.2821C164.467 58.6694 162.76 59.783 162.066 60.1062C161.969 61.3505 161.842 62.5452 161.683 63.6859C161.688 63.7806 161.695 63.8843 161.703 63.9895C161.775 63.6964 161.841 63.4334 161.894 63.229C164.017 62.132 164.687 58.8363 164.504 59.6899C164.317 60.5405 165.094 60.1888 164.718 63.0502C163.719 66.4962 161.679 67.0988 161.081 67.2025C160.882 68.1643 160.671 69.081 160.446 69.9407C160.443 70.0008 160.441 70.0639 160.435 70.1255C160.542 69.858 160.646 69.6145 160.723 69.4282C162.979 68.8331 164.069 65.7613 163.774 66.5503C163.484 67.3408 164.297 67.1724 163.554 69.8866C162.196 72.8621 160.227 73.1417 159.51 73.1327C159.23 73.9803 158.953 74.7482 158.681 75.432C160.983 75.3659 162.471 72.6773 162.072 73.3731C161.671 74.0704 162.506 74.1035 161.389 76.5666C159.803 78.872 158.04 78.9411 157.183 78.8013C156.966 79.2071 156.836 79.4325 156.825 79.452L156.466 79.0673C156.475 79.0523 156.553 78.9216 156.683 78.6766L156.649 78.6616H156.637ZM8.36007 78.6616C8.36007 78.6616 8.27441 78.5263 8.13674 78.3009C8.66446 77.2399 9.24878 75.3854 8.78989 72.8005C7.88742 70.1811 7.40864 71.1129 7.19909 70.2713C6.99718 69.4537 7.78034 72.4504 6.69125 75.0593C6.39298 74.2928 6.0794 73.4242 5.76889 72.4594C6.39604 71.4976 7.09048 69.8625 7.00788 67.4039C6.50005 64.5861 5.90656 65.3931 5.8209 64.5094C5.7383 63.6754 6.06564 66.6284 4.7777 68.9307C4.58802 68.1568 4.41059 67.3438 4.24233 66.4917C4.96584 65.6561 5.80254 64.2044 6.03504 61.8209C5.89738 58.9054 5.21364 59.5756 5.2427 58.677C5.27329 57.8324 5.21211 60.8365 3.66413 62.8338C3.53564 61.8089 3.4301 60.7388 3.35515 59.6267C4.17808 58.973 5.25188 57.6881 5.78725 55.2415C6.00139 52.311 5.24882 52.837 5.38343 51.9503C5.5165 51.0967 5.07444 54.2226 3.22054 55.8682C3.21748 54.8913 3.23584 53.892 3.28632 52.8655C4.1842 52.4222 5.47367 51.3822 6.33791 48.9281C6.89775 46.0517 6.09776 46.4214 6.33791 45.5648C6.575 44.7157 5.71688 47.9393 3.57694 49.1205C3.69931 48.0159 3.85228 46.8858 4.03889 45.7346C4.97808 45.5423 6.31802 44.884 7.52642 42.8642C8.59257 40.2192 7.75587 40.3274 8.14439 39.5625C8.52986 38.7961 7.07825 41.7762 4.76087 42.2015L4.68898 42.3307C4.97961 41.0202 5.31306 39.6797 5.69853 38.3152C6.64383 38.2069 8.05873 37.6614 9.38491 35.6401C10.5382 33.0553 9.70308 33.1124 10.1161 32.37C10.5199 31.6441 9.04534 34.3868 6.80444 34.7745C7.11343 33.8698 7.44689 32.9501 7.80329 32.0243C8.74859 32.0348 10.1405 31.6712 11.5738 29.9294C12.9505 27.5249 12.1199 27.4527 12.5986 26.7764C13.0728 26.1002 11.2771 28.7451 8.95815 28.667C8.84037 28.8173 8.69047 29.0187 8.5268 29.2336C8.62163 28.9405 8.71035 28.6775 8.77154 28.4731C7.80329 25.759 8.98874 22.5971 8.69506 23.4236C8.39372 24.2502 8.0159 23.2989 6.84421 25.8687C5.8882 29.196 6.82892 31.3796 7.26333 32.1506C6.96046 32.9501 6.67137 33.7436 6.40368 34.5325C5.26565 32.0228 6.13141 28.8218 5.9142 29.6739C5.69088 30.5395 5.22587 29.6559 4.28516 32.379C3.66566 35.6461 4.66756 37.6239 5.20293 38.4023C4.89089 39.5084 4.61556 40.5964 4.37235 41.668C3.32914 39.274 4.02053 36.3029 3.83698 37.1294C3.64884 38.0056 3.15171 37.1595 2.30736 39.9247C1.7674 43.4368 3.02169 45.3754 3.5387 46.0051C3.38115 46.997 3.24808 47.9768 3.14559 48.9386C1.54867 46.988 1.68633 43.7283 1.66186 44.603C1.63432 45.5047 0.988824 44.8494 0.667604 47.7709C0.774678 51.017 2.1238 52.5109 2.82437 53.0714C2.77848 54.1504 2.76319 55.2054 2.77236 56.2274L2.74789 56.0395C0.794563 54.5111 0.534527 51.0907 0.612538 51.9759C0.693608 52.8625 -0.0253143 52.3546 0.000689237 55.2821C0.532997 58.6694 2.24005 59.783 2.9345 60.1062C3.02934 61.3505 3.1563 62.5452 3.31691 63.6859C3.31079 63.7806 3.30161 63.8843 3.29702 63.9895C3.2236 63.6964 3.15936 63.4334 3.10429 63.229C0.978117 62.132 0.309673 58.8363 0.494757 59.6899C0.681371 60.5405 -0.0972065 60.1888 0.28061 63.0502C1.28098 66.4962 3.32456 67.0988 3.91652 67.2025C4.11537 68.1643 4.32952 69.081 4.55131 69.9407L4.56661 70.1255L4.27598 69.4282C2.02285 68.8331 0.933758 65.7613 1.22745 66.5503C1.52113 67.3408 0.704315 67.1724 1.44618 69.8866C2.80754 72.8621 4.77464 73.1417 5.49203 73.1327C5.77195 73.9803 6.05034 74.7482 6.31802 75.432C4.019 75.3659 2.53068 72.6773 2.93144 73.3731C3.33373 74.0704 2.49703 74.1035 3.61365 76.5666C5.2014 78.872 6.96352 78.9411 7.82317 78.8013C8.03732 79.2071 8.16734 79.4325 8.17804 79.452L8.5375 79.0673C8.5268 79.0523 8.44879 78.9216 8.32336 78.6766L8.36007 78.6616ZM14.1359 69.4718C12.7623 66.8719 11.6182 61.863 16.0862 55.3076C17.7871 52.8084 21.5622 49.1791 26.2322 48.623C36.5479 47.3907 37.9108 54.9094 37.9108 54.9094C37.9108 54.9094 32.2818 50.5602 28.1671 50.6113C26.3591 50.6338 20.825 50.4189 16.7363 55.7765C13.8223 59.5937 14.812 64.3907 15.3596 66.4466C16.1734 69.4973 19.306 71.7005 23.4131 71.7005C26.9052 71.7005 34.3743 71.8507 50.8162 56.8976C67.6665 41.5748 82.2438 22.0756 88.7677 10.9772C90.5543 7.934 91.1462 5.49941 90.4273 4.11681C89.7512 2.80935 88.2583 1.92269 88.2399 1.91968C87.4476 1.84153 88.0564 -0.0715665 88.8579 0.00207206C88.9956 0.0125919 93.095 1.46432 94.0081 4.38131C94.8556 7.08039 93.7481 9.67126 91.3512 13.9243C88.3929 19.1766 85.8751 22.7158 82.7746 26.3376C72.0061 38.9163 65.9947 45.0689 52.3306 57.912C35.3304 73.8931 28.2788 74.4191 23.4146 74.0915C19.9118 73.854 16.0877 73.1747 14.1359 69.4748V69.4718Z" fill="#EDEDEF"/>
<path fill-rule="evenodd" clip-rule="evenodd" d="M37.741 65.5704C36.4225 65.5704 35.1177 65.1436 33.663 64.5395C27.7388 62.0809 29.1507 57.1306 29.1629 57.0795C29.1828 56.9923 29.6753 54.8883 31.5491 54.0948C32.6107 53.644 33.4611 53.5929 34.7812 54.3623C38.3207 56.4362 38.1647 59.7049 37.9536 60.2865C37.7395 60.8756 37.6416 60.7869 37.5911 60.6021C37.5559 60.4713 38.616 57.1306 34.4799 54.8989C33.5651 54.4089 32.5265 54.6133 31.9132 54.8718C30.7277 55.3738 30.1235 56.8631 30.1235 56.8811C30.0776 57.0569 28.4899 60.9177 34.0286 63.5536C40.4928 66.6344 46.6098 60.9613 46.8316 60.7193C47.1038 60.4278 48.1929 61.2032 47.9206 61.4948C47.8702 61.5489 43.2874 65.5704 37.741 65.5704Z" fill="#EDEDEF"/>
<path fill-rule="evenodd" clip-rule="evenodd" d="M49.0266 69.5529C48.9868 69.5529 34.4493 68.28 33.8038 58.8077C33.2608 50.8202 41.8986 46.2501 50.3145 44.1656C57.3845 42.4148 67.844 41.3794 82.1276 40.8218C94.3707 40.3454 94.0586 34.1403 94.4502 32.1761C94.8128 30.3577 97.4712 41.2592 82.692 42.493C68.6838 43.6622 62.2747 43.9658 51.8442 47.0706C45.2484 49.0318 37.0374 52.9226 37.3479 58.728C37.7487 66.2873 50.0392 69.5514 49.0251 69.5514L49.0266 69.5529Z" fill="#EDEDEF"/>
<path fill-rule="evenodd" clip-rule="evenodd" d="M44.5158 56.3025C44.6274 56.2199 49.019 52.9813 54.3818 48.2248C51.7815 43.273 49.5436 34.9609 51.7233 24.1901C53.8801 13.529 59.2537 8.29019 63.379 5.38973C67.6314 2.3991 72.9851 1.3892 75.2183 2.8199C78.2271 4.74802 79.5884 9.7329 77.395 17.2365C74.2547 27.9817 65.0249 40.1757 56.1026 48.2744C57.9535 51.2575 60.3397 53.2397 60.3611 53.2578C60.6517 53.5163 67.1863 58.2412 73.9212 53.2277C74.452 52.831 74.1659 53.3419 73.626 53.7297C65.8096 59.3442 59.1955 53.8604 59.1221 53.7928C58.9539 53.6575 57.0066 52.1547 55.0732 49.1671C49.9949 53.6305 45.7211 56.9698 45.279 57.2944C45.0649 57.4552 43.9804 56.6932 44.5158 56.3025ZM71.8394 3.21063C71.7017 3.22566 57.0403 4.19498 53.3524 24.6635C51.5627 34.5882 53.3141 43.0761 55.3485 47.2705C55.373 47.3186 71.7767 32.1881 75.9403 17.0937C78.3571 8.31123 76.2248 5.0035 74.9797 4.13637C73.5418 3.13549 71.8455 3.21063 71.8394 3.21063ZM89.0966 64.3006C88.4082 64.3697 87.6174 64.4959 85.9149 63.9023C83.3911 63.0262 81.8921 59.7455 81.476 55.255C80.5368 45.141 84.3257 33.3408 84.4633 32.8178L92.4403 6.34553C93.4728 6.61003 87.2212 33.8232 87.2212 33.8232C87.1907 33.9434 83.5563 47.4599 84.7463 56.2033C85.6335 62.7076 88.9467 62.0523 88.9528 62.0493C94.1902 61.5143 97.2709 57.7137 97.2709 57.7137C97.8368 58.3298 93.6365 63.8016 89.0966 64.3006Z" fill="#EDEDEF"/>
<path fill-rule="evenodd" clip-rule="evenodd" d="M66.0176 77.7583C62.449 77.7583 59.6697 76.9122 57.721 75.2291C55.5719 73.3656 54.5164 70.5658 54.5853 66.8989C54.7535 57.6039 64.2479 51.2725 64.6104 50.9689C65.2222 50.458 64.9316 51.4529 64.3198 51.9638C64.2433 52.0284 57.0051 58.5207 56.8583 66.5067C56.8063 69.2899 57.9183 72.2129 59.3974 73.4888C61.3554 75.187 65.2559 75.9279 69.9671 75.2216C75.1495 74.4431 81.3735 69.7934 88.0274 61.1942C92.1772 55.8351 98.7255 42.4043 101.861 34.812C105.119 26.9312 110.901 17.7159 111.226 17.3236C112.272 16.0508 113.612 16.0402 114.245 16.5181C115.255 17.2771 114.842 18.7273 114.276 19.5629C113.939 20.0633 107.178 27.591 103.553 35.1111C99.9079 42.6748 93.6059 56.4738 89.3276 62.0042C82.1934 71.2225 76.2279 76.5185 70.2685 77.4157C68.745 77.6411 67.3316 77.7568 66.0192 77.7568L66.0176 77.7583ZM97.28 75.7536C97.667 72.0716 100.072 57.625 102.813 52.087C110.109 37.3443 115.762 38.225 118.533 39.3506C120.442 40.126 121.523 42.2781 120.102 42.9919C116.78 44.6631 115.391 40.7227 112.734 41.3794C110.182 42.0106 106.239 49.5893 106.028 50.1559C101.011 63.6438 102.365 69.5514 102.086 76.245C102.036 77.4803 97.1454 77.064 97.28 75.7536Z" fill="#EDEDEF"/>
<path fill-rule="evenodd" clip-rule="evenodd" d="M97.28 75.7536C97.5462 74.0704 104.963 34.1959 111.88 17.9849C112.189 17.2545 113.04 16.9149 113.777 17.2184C114.516 17.528 112.642 20.5968 112.328 21.3257C105.552 37.215 100.24 76.0316 100.176 76.4403C100.064 77.1467 97.1592 76.535 97.2816 75.7551L97.28 75.7536ZM105.122 77.59C102.828 77.6802 95.5776 77.6727 93.1608 77.59C93.1608 75.8016 96.916 76.2495 97.3979 75.0848C98.0862 73.4317 101.739 73.5219 102.063 75.0848C102.285 76.1698 105.081 76.1954 105.122 77.59Z" fill="#EDEDEF"/>
<path fill-rule="evenodd" clip-rule="evenodd" d="M101.618 63.5055C101.618 63.5055 107.507 61.2964 114.855 54.3262C117.655 51.6722 120.923 46.9924 122.641 45.1214C125.287 42.236 126.393 40.9826 129.405 39.2303C131.325 38.1182 137.953 35.7288 143.016 37.72C145.03 38.5135 145.585 38.9553 146.892 41.8888C147.572 43.4217 147.404 45.0823 145.592 45.4926C143.453 45.9765 142.535 43.8305 142.451 42.517C142.151 37.7981 138.158 38.3587 137.319 38.3392C134.673 38.2685 127.856 44.6691 125.621 46.9308C123.853 48.7162 119.047 52.8159 115.943 55.545C107.258 63.1839 101.62 63.504 101.62 63.504L101.618 63.5055Z" fill="#EDEDEF"/>
<path fill-rule="evenodd" clip-rule="evenodd" d="M140.308 67.0462C139.201 67.0462 137.668 66.9966 136.709 66.5157C135.225 65.7718 133.573 64.0961 133.24 60.9597C132.399 53.0353 137.771 49.8238 138.613 49.4706C141.003 48.1782 146.421 47.532 147.978 50.0958C150.219 53.7972 148.446 56.5955 148.339 56.7683C147.992 57.3304 147.569 57.3124 147.918 56.7503C147.933 56.7248 148.889 53.3344 147.332 51.0456C144.958 47.559 139.877 49.9425 139.822 49.9605C139.615 50.0447 133.985 52.9512 134.448 60.841C134.583 63.1584 136.128 64.8836 137.466 65.5554C139.398 66.5247 142.976 65.8484 146.194 63.7971C150.73 60.9041 152.971 55.6277 150.753 47.7694C148.244 38.8667 140.085 38.0611 139.67 38.0401C139.005 38.01 138.505 36.937 139.156 36.9581C139.276 36.9611 149.032 36.9581 152.112 47.4433C154.636 56.0365 151.205 61.7953 146.826 64.7228C144.651 66.176 143.109 66.6524 140.304 67.0522L140.308 67.0462ZM131.256 89.9282C122.8 89.6472 112.956 79.168 110.254 71.9995C107.175 63.8241 100.531 63.504 100.531 63.504C100.57 63.3056 107.057 61.4046 112.09 68.6467C116.411 74.8609 122.054 82.2578 122.819 83.3984C123.251 83.9169 128.478 90.4993 136.129 88.8898C141.55 87.7476 141.56 83.9455 141.56 82.7026C141.56 82.7026 141.556 80.25 143.559 80.3357C144.966 80.3958 145.078 81.3756 145.169 82.124C145.384 83.8763 142.895 90.7999 131.256 89.9237V89.9282Z" fill="#EDEDEF"/>
<path fill-rule="evenodd" clip-rule="evenodd" d="M121.099 78.0288C119.279 78.0288 118.204 77.9627 117.052 77.4923C116.558 77.2909 116.588 76.5515 117.083 76.7514C117.343 76.8566 124.241 79.0132 126.988 74.5663C128.296 72.4503 127.747 67.1393 126.575 65.5749C125.703 64.4027 124.327 63.2651 122.858 63.1343C119.658 62.8488 117.52 64.1457 117.505 66.6509C117.479 70.2307 122.71 72.9628 122.71 72.9628C122.71 72.9628 118.017 71.7605 117.203 67.4053C116.703 64.7453 118.455 62.3709 122.858 62.7316C124.691 62.8788 126.664 64.1232 127.712 66.8884C128.804 69.7768 128.281 74.0914 126.978 75.3944C125.026 77.348 123.281 77.7749 121.099 78.0288Z" fill="#EDEDEF"/>
<path fill-rule="evenodd" clip-rule="evenodd" d="M143.267 86.1757C143.603 86.0404 153.566 79.9389 148.674 68.2695C146.938 64.1367 144.937 61.0709 141.907 59.5831C136.954 57.1576 132.561 58.1975 131.456 58.6003C128.565 59.6568 119.226 64.837 121.733 76.1188C122.322 78.7697 122.959 80.8226 126.704 82.9446C131.446 85.6317 139.43 84.2671 138.915 84.4023C138.597 84.488 130.774 86.8474 125.72 83.149C123.212 81.3155 122.055 79.3408 121.352 76.1548C118.482 63.1704 131.337 58.169 131.337 58.169C131.337 58.169 136.611 56.3145 142.029 58.9895C145.563 60.7358 147.279 63.489 149.277 68.1207C152.056 74.5678 150.139 79.4731 148.432 81.9693C145.532 86.2072 140.738 88.3713 140.634 88.4104C140.518 88.4555 142.773 86.3665 143.267 86.1757Z" fill="#EDEDEF"/>
</svg>
